<svg class="responsive-svg" width="400" height="450" viewBox="0 0 861 830" fill="none" xmlns="http://www.w3.org/2000/svg"><rect></rect><g class="component hover-effect"><path id="PCBehind" d="M1.5 792.502V51C1.5 39.9543 10.4543 31 21.5 31H591.591C595.759 31 599.823 29.6975 603.215 27.2747L634.785 4.72533C638.177 2.30246 642.241 1 646.409 1H752.57C756.126 1 759.617 1.9479 762.684 3.74604L849.614 54.705C855.738 58.2946 859.5 64.8609 859.5 71.9589V750.738C859.5 757.457 856.126 763.727 850.518 767.429L763.012 825.191C759.743 827.35 755.912 828.5 751.994 828.5H677.75C668.499 828.5 661 821.001 661 811.75C661 802.499 653.501 795 644.25 795H116.25C106.999 795 99.5 802.499 99.5 811.75C99.5 821.001 92.0008 828.5 82.75 828.5H25.5591C16.4079 828.5 8.42404 822.289 6.17342 813.419L2.11429 797.421C1.70635 795.813 1.5 794.161 1.5 792.502Z" stroke="lightgray" stroke-width="3"></path></g><path id="PCOuter" d="M27 627.701C27 620.76 24.7158 614.013 20.5 608.5C16.2842 602.987 14 596.24 14 589.3V360.358C14 352.619 16.2825 344.988 20.5 338.5C24.7175 332.012 27 324.381 27 316.642V122.418C27 114.955 26.7053 107.127 29.9119 101.059C31.9373 97.2262 35.0934 93.736 39.0881 92.0525C45.145 89.5 54.2787 89.5 59.9179 89.5H698.582C706.283 89.5 713.74 92.1998 719.656 97.1297C727.161 103.384 731.5 112.649 731.5 122.418V730.194C731.5 739.552 727.246 748.403 719.938 754.249C714.476 758.619 707.689 761 700.694 761H481.5M27 627.701H451.5C468.069 627.701 481.5 641.132 481.5 657.701V761M27 627.701V646M481.5 761H230.5M27 646V729.3C27 739.193 31.619 748.519 39.4886 754.515C45.0098 758.722 51.7592 761 58.7004 761H230.5M27 646H176.946C189.146 646 200.846 650.846 209.473 659.473L217.027 667.027C225.654 675.654 230.5 687.354 230.5 699.554V761M1.5 51V792.502C1.5 794.161 1.70635 795.813 2.11429 797.421L6.17342 813.419C8.42404 822.289 16.4079 828.5 25.5591 828.5H82.75C92.0008 828.5 99.5 821.001 99.5 811.75C99.5 802.499 106.999 795 116.25 795H644.25C653.501 795 661 802.499 661 811.75C661 821.001 668.499 828.5 677.75 828.5H751.994C755.912 828.5 759.743 827.35 763.012 825.191L850.518 767.429C856.126 763.727 859.5 757.457 859.5 750.738V71.9589C859.5 64.8609 855.738 58.2946 849.614 54.705L762.684 3.74604C759.617 1.9479 756.126 1 752.57 1H646.409C642.241 1 638.177 2.30246 634.785 4.72533L603.215 27.2747C599.823 29.6975 595.759 31 591.591 31H21.5C10.4543 31 1.5 39.9543 1.5 51Z" stroke="lightgray" stroke-width="3"></path><path id="PSUShroud" d="M27 646V729.3C27 739.193 31.619 748.519 39.4886 754.515C45.0098 758.722 51.7592 761 58.7004 761H230.5M27 646V627.701H451.5C468.069 627.701 481.5 641.132 481.5 657.701V761H230.5M27 646H176.946C189.146 646 200.846 650.846 209.473 659.473L217.027 667.027C225.654 675.654 230.5 687.354 230.5 699.554V761" stroke="lightgray" stroke-width="3"></path><g class="component hover-effect"><g id="Motherbored"><path id="Motherboard" fill-rule="evenodd" clip-rule="evenodd" d="M34 596C34 607.046 42.9543 616 54 616H468C479.046 616 488 607.046 488 596V117C488 105.954 479.046 97 468 97H54C42.9543 97 34 105.954 34 117V596ZM69.5 569.5C59.1 569.5 56.1667 578.5 56 583C56 587.5 58.7 596.5 69.5 596.5C80.3 596.5 83 587.5 83 583C82.8333 578.5 79.9 569.5 69.5 569.5ZM453.5 569.5C443.1 569.5 440.167 578.5 440 583C440 587.5 442.7 596.5 453.5 596.5C464.3 596.5 467 587.5 467 583C466.833 578.5 463.9 569.5 453.5 569.5ZM453.5 119C443.1 119 440.167 128 440 132.5C440 137 442.7 146 453.5 146C464.3 146 467 137 467 132.5C466.833 128 463.9 119 453.5 119Z" stroke="white" stroke-width="2"></path><path id="MBUnderCPU" d="M155 367.5V367.5C155 361.977 150.523 357.5 145 357.5H129C123.477 357.5 119 361.977 119 367.5V367.5M155 367.5H168M155 367.5V390M155 390V390C155 394.971 150.971 399 146 399H128C123.029 399 119 394.971 119 390V390M155 390H168M119 390H104M119 390V367.5M119 367.5H104M198 376.768C198.167 372.268 200.5 349 228.5 349C256.5 349 256.333 372.268 256.5 376.768C256.5 381.268 259 407 228.5 407C198 407 198 381.268 198 376.768Z" stroke="white" stroke-width="2"></path><path id="Vector 2" d="M34 535.5H79.5M34 509H79.5M34 483H79.5M34 458.5H79.5M34 431H79.5" stroke="white" stroke-width="2"></path><path id="MBstuff" d="M331.5 567V565.5C331.5 554.454 340.454 545.5 351.5 545.5H357.5M331.5 567V568.5C331.5 579.546 340.454 588.5 351.5 588.5H357.5M331.5 567H403.5M403.5 567V568.5C403.5 579.546 394.546 588.5 383.5 588.5H380.5M403.5 567V565.5C403.5 554.454 394.546 545.5 383.5 545.5H380.5M357.5 545.5V588.5M357.5 545.5H380.5M357.5 588.5H380.5M380.5 545.5V588.5M388.75 501.5H352.188C346.941 501.5 341.904 499.438 338.163 495.759L319.475 477.377C315.653 473.617 313.5 468.48 313.5 463.119V402C313.5 390.954 322.454 382 333.5 382H359.5M388.75 501.5H413.5C424.546 501.5 433.5 492.546 433.5 481.5V420.288C433.5 415.279 431.62 410.453 428.233 406.763L411.444 388.475C407.656 384.349 402.312 382 396.711 382H359.5M388.75 501.5L347.75 460.5M359.5 382L402 424.5" stroke="white" stroke-width="2"></path><path id="MBStuff2" d="M80.4211 335.647L53.4526 311.765M94.5684 307.235L53.4526 269.765M113.137 279.647L53.4526 226.529M113.137 236.824L53.4526 181.647M146 126.235V117C146 105.954 154.954 97 166 97H286.513C291.931 97 297.117 99.1979 300.884 103.091L307.021 109.431C315.563 118.257 314.205 132.626 304.161 139.695L287.474 151.441M146 126.235V147C146 158.046 154.954 167 166 167H259.036C263.157 167 267.177 165.727 270.547 163.355L287.474 151.441M146 126.235H252.105M287.474 151.441H186.674M34 383.329V151.818C34 144.187 40.1865 138 47.818 138V138C51.43 138 54.8985 139.414 57.4806 141.94L126.575 209.528C130.421 213.291 132.589 218.445 132.589 223.825V307.36C132.589 312.561 130.563 317.558 126.941 321.29L57.4799 392.851C54.9055 395.503 51.3667 397 47.6705 397V397C40.1205 397 34 390.879 34 383.329Z" stroke="white" stroke-width="2"></path></g></g><g class="component hover-effect"><path id="HDD1" d="M696.5 664H510C504.477 664 500 668.477 500 674V695C500 700.523 504.477 705 510 705H603.25H696.5C702.023 705 706.5 700.523 706.5 695V674C706.5 668.477 702.023 664 696.5 664Z" fill="" stroke-width="1"></path></g><g class="component hover-effect"><path id="HDD2" d="M696.5 709H510C504.477 709 500 713.477 500 719V740C500 745.523 504.477 750 510 750H603.25H696.5C702.023 750 706.5 745.523 706.5 740V719C706.5 713.477 702.023 709 696.5 709Z" fill="" stroke-width="1"></path></g><g class="component hover-effect"><path id="SSD2" d="M547 512V406C547 394.954 555.954 386 567 386H641C652.046 386 661 394.954 661 406V512C661 523.046 652.046 532 641 532H567C555.954 532 547 523.046 547 512Z" fill="" stroke-width="1" filter="drop-shadow(4px 4px 12px rgba(0, 0, 0, 0.2))"></path></g><g class="component hover-effect"><path id="SSD1" d="M547 294V188C547 176.954 555.954 168 567 168H641C652.046 168 661 176.954 661 188V294C661 305.046 652.046 314 641 314H567C555.954 314 547 305.046 547 294Z" fill="" stroke-width="1" filter="drop-shadow(4px 4px 12px rgba(0, 0, 0, 0.2))"></path></g><g class="component hover-effect"><path id="M2-SSD" d="M112.622 569.357L135.99 531.357C137.081 529.582 139.016 528.5 141.101 528.5H312.161C317.075 528.5 319.906 534.085 317 538.048L289.139 576.048C288.008 577.589 286.211 578.5 284.3 578.5H117.733C113.04 578.5 110.164 573.355 112.622 569.357Z" fill="" stroke-width="1" filter="drop-shadow(4px 4px 12px rgba(0, 0, 0, 0.2))"></path></g><g class="component hover-effect"><path id="CPU socket" d="M169 296V236C169 224.954 177.954 216 189 216H249C260.046 216 269 224.954 269 236V296C269 307.046 260.046 316 249 316H189C177.954 316 169 307.046 169 296Z" stroke="lightgray" stroke-width="3"></path></g><g class="component hover-effect"><g id="Sticker"><path id="PSU" d="M27 729.3C27 739.193 31.619 748.519 39.4886 754.515C45.0098 758.722 51.7592 761 58.7004 761H230.5V699.554C230.5 687.354 225.654 675.654 217.027 667.027L209.473 659.473C200.846 650.846 189.146 646 176.946 646H27V729.3Z" stroke="white" stroke-width="2"></path></g></g><g class="component hover-effect"><path id="GPUSlot" d="M115.5 453V438.5H271V453H115.5Z" stroke="lightgray" stroke-width="3"></path></g><g class="component hover-effect"><path id="RAMSlot1" d="M327.019 332.45H314.981V175.55H327.019V332.45Z" stroke="white" stroke-width="2" fill="" filter="drop-shadow(4px 4px 12px rgba(0, 0, 0, 0.2))"></path><path id="RAMSlot3" d="M393.019 332.45H380.981V175.55H393.019V332.45Z" stroke="white" stroke-width="2" fill="" filter="drop-shadow(4px 4px 12px rgba(0, 0, 0, 0.2))"></path><path id="RAMSlot2" d="M360.019 332.45H347.981V175.55H360.019V332.45Z" stroke="white" stroke-width="2" fill="" filter="drop-shadow(4px 4px 12px rgba(0, 0, 0, 0.2))"></path><path id="RAMSlot4" d="M426.019 332.45H413.981V175.55H426.019V332.45Z" stroke="white" stroke-width="2" fill="" filter="drop-shadow(4px 4px 12px rgba(0, 0, 0, 0.2))"></path></g><defs><filter id="filter0_d_0_1" x="31" y="427" width="424" height="81.5" filterUnits="userSpaceOnUse" color-interpolation-filters="sRGB"><feFlood flood-opacity="0" result="BackgroundImageFix"></feFlood><feColorMatrix in="SourceAlpha" type="matrix" values="0 0 0 0 0 0 0 0 0 0 0 0 0 0 0 0 0 0 127 0" result="hardAlpha"></feColorMatrix><feOffset dy="4"></feOffset><feGaussianBlur stdDeviation="2"></feGaussianBlur><feComposite in2="hardAlpha" operator="out"></feComposite><feColorMatrix type="matrix" values="0 0 0 0 0 0 0 0 0 0 0 0 0 0 0 0 0 0 0.25 0"></feColorMatrix><feBlend mode="normal" in2="BackgroundImageFix" result="effect1_dropShadow_0_1"></feBlend><feBlend mode="normal" in="SourceGraphic" in2="effect1_dropShadow_0_1" result="shape"></feBlend></filter><filter id="filter1_d_0_1" x="34.5" y="429" width="418" height="77" filterUnits="userSpaceOnUse" color-interpolation-filters="sRGB"><feFlood flood-opacity="0" result="BackgroundImageFix"></feFlood><feColorMatrix in="SourceAlpha" type="matrix" values="0 0 0 0 0 0 0 0 0 0 0 0 0 0 0 0 0 0 127 0" result="hardAlpha"></feColorMatrix><feOffset dy="4"></feOffset><feGaussianBlur stdDeviation="2"></feGaussianBlur><feComposite in2="hardAlpha" operator="out"></feComposite><feColorMatrix type="matrix" values="0 0 0 0 0 0 0 0 0 0 0 0 0 0 0 0 0 0 0.25 0"></feColorMatrix><feBlend mode="normal" in2="BackgroundImageFix" result="effect1_dropShadow_0_1"></feBlend><feBlend mode="normal" in="SourceGraphic" in2="effect1_dropShadow_0_1" result="shape"></feBlend></filter><filter id="filter2_d_0_1" x="48.5" y="443" width="394.5" height="50.5" filterUnits="userSpaceOnUse" color-interpolation-filters="sRGB"><feFlood flood-opacity="0" result="BackgroundImageFix"></feFlood><feColorMatrix in="SourceAlpha" type="matrix" values="0 0 0 0 0 0 0 0 0 0 0 0 0 0 0 0 0 0 127 0" result="hardAlpha"></feColorMatrix><feOffset dy="4"></feOffset><feGaussianBlur stdDeviation="2"></feGaussianBlur><feComposite in2="hardAlpha" operator="out"></feComposite><feColorMatrix type="matrix" values="0 0 0 0 0 0 0 0 0 0 0 0 0 0 0 0 0 0 0.25 0"></feColorMatrix><feBlend mode="normal" in2="BackgroundImageFix" result="effect1_dropShadow_0_1"></feBlend><feBlend mode="normal" in="SourceGraphic" in2="effect1_dropShadow_0_1" result="shape"></feBlend></filter><filter id="filter3_d_0_1" x="362.5" y="436" width="42" height="25.5" filterUnits="userSpaceOnUse" color-interpolation-filters="sRGB"><feFlood flood-opacity="0" result="BackgroundImageFix"></feFlood><feColorMatrix in="SourceAlpha" type="matrix" values="0 0 0 0 0 0 0 0 0 0 0 0 0 0 0 0 0 0 127 0" result="hardAlpha"></feColorMatrix><feOffset dy="4"></feOffset><feGaussianBlur stdDeviation="2"></feGaussianBlur><feComposite in2="hardAlpha" operator="out"></feComposite><feColorMatrix type="matrix" values="0 0 0 0 0 0 0 0 0 0 0 0 0 0 0 0 0 0 0.25 0"></feColorMatrix><feBlend mode="normal" in2="BackgroundImageFix" result="effect1_dropShadow_0_1"></feBlend><feBlend mode="normal" in="SourceGraphic" in2="effect1_dropShadow_0_1" result="shape"></feBlend></filter><filter id="filter4_d_0_1" x="398.5" y="436" width="42" height="25.5" filterUnits="userSpaceOnUse" color-interpolation-filters="sRGB"><feFlood flood-opacity="0" result="BackgroundImageFix"></feFlood><feColorMatrix in="SourceAlpha" type="matrix" values="0 0 0 0 0 0 0 0 0 0 0 0 0 0 0 0 0 0 127 0" result="hardAlpha"></feColorMatrix><feOffset dy="4"></feOffset><feGaussianBlur stdDeviation="2"></feGaussianBlur><feComposite in2="hardAlpha" operator="out"></feComposite><feColorMatrix type="matrix" values="0 0 0 0 0 0 0 0 0 0 0 0 0 0 0 0 0 0 0.25 0"></feColorMatrix><feBlend mode="normal" in2="BackgroundImageFix" result="effect1_dropShadow_0_1"></feBlend><feBlend mode="normal" in="SourceGraphic" in2="effect1_dropShadow_0_1" result="shape"></feBlend></filter><filter id="filter5_d_0_1" x="200.284" y="485.92" width="90.4234" height="18.08" filterUnits="userSpaceOnUse" color-interpolation-filters="sRGB"><feFlood flood-opacity="0" result="BackgroundImageFix"></feFlood><feColorMatrix in="SourceAlpha" type="matrix" values="0 0 0 0 0 0 0 0 0 0 0 0 0 0 0 0 0 0 127 0" result="hardAlpha"></feColorMatrix><feOffset dy="4"></feOffset><feGaussianBlur stdDeviation="2"></feGaussianBlur><feComposite in2="hardAlpha" operator="out"></feComposite><feColorMatrix type="matrix" values="0 0 0 0 0 0 0 0 0 0 0 0 0 0 0 0 0 0 0.25 0"></feColorMatrix><feBlend mode="normal" in2="BackgroundImageFix" result="effect1_dropShadow_0_1"></feBlend><feBlend mode="normal" in="SourceGraphic" in2="effect1_dropShadow_0_1" result="shape"></feBlend></filter><filter id="filter6_d_0_1" x="179.284" y="485.92" width="126.387" height="18.08" filterUnits="userSpaceOnUse" color-interpolation-filters="sRGB"><feFlood flood-opacity="0" result="BackgroundImageFix"></feFlood><feColorMatrix in="SourceAlpha" type="matrix" values="0 0 0 0 0 0 0 0 0 0 0 0 0 0 0 0 0 0 127 0" result="hardAlpha"></feColorMatrix><feOffset dy="4"></feOffset><feGaussianBlur stdDeviation="2"></feGaussianBlur><feComposite in2="hardAlpha" operator="out"></feComposite><feColorMatrix type="matrix" values="0 0 0 0 0 0 0 0 0 0 0 0 0 0 0 0 0 0 0.25 0"></feColorMatrix><feBlend mode="normal" in2="BackgroundImageFix" result="effect1_dropShadow_0_1"></feBlend><feBlend mode="normal" in="SourceGraphic" in2="effect1_dropShadow_0_1" result="shape"></feBlend></filter><filter id="filter0_i_0_1" x="0.5" y="0" width="858" height="831.5" filterUnits="userSpaceOnUse" color-interpolation-filters="sRGB"><feFlood flood-opacity="0" result="BackgroundImageFix"></feFlood><feBlend mode="normal" in="SourceGraphic" in2="BackgroundImageFix" result="shape"></feBlend><feColorMatrix in="SourceAlpha" type="matrix" values="0 0 0 0 0 0 0 0 0 0 0 0 0 0 0 0 0 0 127 0" result="hardAlpha"></feColorMatrix><feOffset dy="4"></feOffset><feGaussianBlur stdDeviation="2"></feGaussianBlur><feComposite in2="hardAlpha" operator="arithmetic" k2="-1" k3="1"></feComposite><feColorMatrix type="matrix" values="0 0 0 0 0 0 0 0 0 0 0 0 0 0 0 0 0 0 0.25 0"></feColorMatrix><feBlend mode="normal" in2="shape" result="effect1_innerShadow_0_1"></feBlend></filter><filter id="filter1_i_0_1" x="0.5" y="-15.9" width="860" height="843.4" filterUnits="userSpaceOnUse" color-interpolation-filters="sRGB"><feFlood flood-opacity="0" result="BackgroundImageFix"></feFlood><feBlend mode="normal" in="SourceGraphic" in2="BackgroundImageFix" result="shape"></feBlend><feColorMatrix in="SourceAlpha" type="matrix" values="0 0 0 0 0 0 0 0 0 0 0 0 0 0 0 0 0 0 127 0" result="hardAlpha"></feColorMatrix><feOffset dx="2" dy="-17"></feOffset><feGaussianBlur stdDeviation="7.95"></feGaussianBlur><feComposite in2="hardAlpha" operator="arithmetic" k2="-1" k3="1"></feComposite><feColorMatrix type="matrix" values="0 0 0 0 0 0 0 0 0 0 0 0 0 0 0 0 0 0 0.22 0"></feColorMatrix><feBlend mode="normal" in2="shape" result="effect1_innerShadow_0_1"></feBlend></filter><filter id="filter2_i_0_1" x="772.48" y="35.3886" width="62.52" height="750.825" filterUnits="userSpaceOnUse" color-interpolation-filters="sRGB"><feFlood flood-opacity="0" result="BackgroundImageFix"></feFlood><feBlend mode="normal" in="SourceGraphic" in2="BackgroundImageFix" result="shape"></feBlend><feColorMatrix in="SourceAlpha" type="matrix" values="0 0 0 0 0 0 0 0 0 0 0 0 0 0 0 0 0 0 127 0" result="hardAlpha"></feColorMatrix><feOffset dy="4"></feOffset><feGaussianBlur stdDeviation="2"></feGaussianBlur><feComposite in2="hardAlpha" operator="arithmetic" k2="-1" k3="1"></feComposite><feColorMatrix type="matrix" values="0 0 0 0 0 0 0 0 0 0 0 0 0 0 0 0 0 0 0.25 0"></feColorMatrix><feBlend mode="normal" in2="shape" result="effect1_innerShadow_0_1"></feBlend></filter><filter id="filter3_i_0_1" x="778.5" y="48.7712" width="50.5" height="728.09" filterUnits="userSpaceOnUse" color-interpolation-filters="sRGB"><feFlood flood-opacity="0" result="BackgroundImageFix"></feFlood><feBlend mode="normal" in="SourceGraphic" in2="BackgroundImageFix" result="shape"></feBlend><feColorMatrix in="SourceAlpha" type="matrix" values="0 0 0 0 0 0 0 0 0 0 0 0 0 0 0 0 0 0 127 0" result="hardAlpha"></feColorMatrix><feOffset dx="7" dy="4"></feOffset><feGaussianBlur stdDeviation="2"></feGaussianBlur><feComposite in2="hardAlpha" operator="arithmetic" k2="-1" k3="1"></feComposite><feColorMatrix type="matrix" values="0 0 0 0 0 0 0 0 0 0 0 0 0 0 0 0 0 0 0.25 0"></feColorMatrix><feBlend mode="normal" in2="shape" result="effect1_innerShadow_0_1"></feBlend></filter><filter id="filter4_ii_0_1" x="16" y="619.701" width="472.5" height="149.299" filterUnits="userSpaceOnUse" color-interpolation-filters="sRGB"><feFlood flood-opacity="0" result="BackgroundImageFix"></feFlood><feBlend mode="normal" in="SourceGraphic" in2="BackgroundImageFix" result="shape"></feBlend><feColorMatrix in="SourceAlpha" type="matrix" values="0 0 0 0 0 0 0 0 0 0 0 0 0 0 0 0 0 0 127 0" result="hardAlpha"></feColorMatrix><feOffset dx="8" dy="-7"></feOffset><feGaussianBlur stdDeviation="8.1"></feGaussianBlur><feComposite in2="hardAlpha" operator="arithmetic" k2="-1" k3="1"></feComposite><feColorMatrix type="matrix" values="0 0 0 0 0 0 0 0 0 0 0 0 0 0 0 0 0 0 0.13 0"></feColorMatrix><feBlend mode="normal" in2="shape" result="effect1_innerShadow_0_1"></feBlend><feColorMatrix in="SourceAlpha" type="matrix" values="0 0 0 0 0 0 0 0 0 0 0 0 0 0 0 0 0 0 127 0" result="hardAlpha"></feColorMatrix><feOffset dx="-10" dy="9"></feOffset><feGaussianBlur stdDeviation="7.7"></feGaussianBlur><feComposite in2="hardAlpha" operator="arithmetic" k2="-1" k3="1"></feComposite><feColorMatrix type="matrix" values="0 0 0 0 0 0 0 0 0 0 0 0 0 0 0 0 0 0 0.13 0"></feColorMatrix><feBlend mode="normal" in2="effect1_innerShadow_0_1" result="effect2_innerShadow_0_1"></feBlend></filter><filter id="filter5_d_0_1" x="30" y="426" width="424" height="81.5" filterUnits="userSpaceOnUse" color-interpolation-filters="sRGB"><feFlood flood-opacity="0" result="BackgroundImageFix"></feFlood><feColorMatrix in="SourceAlpha" type="matrix" values="0 0 0 0 0 0 0 0 0 0 0 0 0 0 0 0 0 0 127 0" result="hardAlpha"></feColorMatrix><feOffset dy="4"></feOffset><feGaussianBlur stdDeviation="2"></feGaussianBlur><feComposite in2="hardAlpha" operator="out"></feComposite><feColorMatrix type="matrix" values="0 0 0 0 0 0 0 0 0 0 0 0 0 0 0 0 0 0 0.25 0"></feColorMatrix><feBlend mode="normal" in2="BackgroundImageFix" result="effect1_dropShadow_0_1"></feBlend><feBlend mode="normal" in="SourceGraphic" in2="effect1_dropShadow_0_1" result="shape"></feBlend></filter><filter id="filter6_d_0_1" x="33.5" y="428" width="418" height="77" filterUnits="userSpaceOnUse" color-interpolation-filters="sRGB"><feFlood flood-opacity="0" result="BackgroundImageFix"></feFlood><feColorMatrix in="SourceAlpha" type="matrix" values="0 0 0 0 0 0 0 0 0 0 0 0 0 0 0 0 0 0 127 0" result="hardAlpha"></feColorMatrix><feOffset dy="4"></feOffset><feGaussianBlur stdDeviation="2"></feGaussianBlur><feComposite in2="hardAlpha" operator="out"></feComposite><feColorMatrix type="matrix" values="0 0 0 0 0 0 0 0 0 0 0 0 0 0 0 0 0 0 0.25 0"></feColorMatrix><feBlend mode="normal" in2="BackgroundImageFix" result="effect1_dropShadow_0_1"></feBlend><feBlend mode="normal" in="SourceGraphic" in2="effect1_dropShadow_0_1" result="shape"></feBlend></filter><filter id="filter7_d_0_1" x="47.5" y="442" width="394.5" height="50.5" filterUnits="userSpaceOnUse" color-interpolation-filters="sRGB"><feFlood flood-opacity="0" result="BackgroundImageFix"></feFlood><feColorMatrix in="SourceAlpha" type="matrix" values="0 0 0 0 0 0 0 0 0 0 0 0 0 0 0 0 0 0 127 0" result="hardAlpha"></feColorMatrix><feOffset dy="4"></feOffset><feGaussianBlur stdDeviation="2"></feGaussianBlur><feComposite in2="hardAlpha" operator="out"></feComposite><feColorMatrix type="matrix" values="0 0 0 0 0 0 0 0 0 0 0 0 0 0 0 0 0 0 0.25 0"></feColorMatrix><feBlend mode="normal" in2="BackgroundImageFix" result="effect1_dropShadow_0_1"></feBlend><feBlend mode="normal" in="SourceGraphic" in2="effect1_dropShadow_0_1" result="shape"></feBlend></filter><filter id="filter8_d_0_1" x="361.5" y="435" width="42" height="25.5" filterUnits="userSpaceOnUse" color-interpolation-filters="sRGB"><feFlood flood-opacity="0" result="BackgroundImageFix"></feFlood><feColorMatrix in="SourceAlpha" type="matrix" values="0 0 0 0 0 0 0 0 0 0 0 0 0 0 0 0 0 0 127 0" result="hardAlpha"></feColorMatrix><feOffset dy="4"></feOffset><feGaussianBlur stdDeviation="2"></feGaussianBlur><feComposite in2="hardAlpha" operator="out"></feComposite><feColorMatrix type="matrix" values="0 0 0 0 0 0 0 0 0 0 0 0 0 0 0 0 0 0 0.25 0"></feColorMatrix><feBlend mode="normal" in2="BackgroundImageFix" result="effect1_dropShadow_0_1"></feBlend><feBlend mode="normal" in="SourceGraphic" in2="effect1_dropShadow_0_1" result="shape"></feBlend></filter><filter id="filter9_d_0_1" x="397.5" y="435" width="42" height="25.5" filterUnits="userSpaceOnUse" color-interpolation-filters="sRGB"><feFlood flood-opacity="0" result="BackgroundImageFix"></feFlood><feColorMatrix in="SourceAlpha" type="matrix" values="0 0 0 0 0 0 0 0 0 0 0 0 0 0 0 0 0 0 127 0" result="hardAlpha"></feColorMatrix><feOffset dy="4"></feOffset><feGaussianBlur stdDeviation="2"></feGaussianBlur><feComposite in2="hardAlpha" operator="out"></feComposite><feColorMatrix type="matrix" values="0 0 0 0 0 0 0 0 0 0 0 0 0 0 0 0 0 0 0.25 0"></feColorMatrix><feBlend mode="normal" in2="BackgroundImageFix" result="effect1_dropShadow_0_1"></feBlend><feBlend mode="normal" in="SourceGraphic" in2="effect1_dropShadow_0_1" result="shape"></feBlend></filter><filter id="filter10_d_0_1" x="199.284" y="484.92" width="90.4234" height="18.08" filterUnits="userSpaceOnUse" color-interpolation-filters="sRGB"><feFlood flood-opacity="0" result="BackgroundImageFix"></feFlood><feColorMatrix in="SourceAlpha" type="matrix" values="0 0 0 0 0 0 0 0 0 0 0 0 0 0 0 0 0 0 127 0" result="hardAlpha"></feColorMatrix><feOffset dy="4"></feOffset><feGaussianBlur stdDeviation="2"></feGaussianBlur><feComposite in2="hardAlpha" operator="out"></feComposite><feColorMatrix type="matrix" values="0 0 0 0 0 0 0 0 0 0 0 0 0 0 0 0 0 0 0.25 0"></feColorMatrix><feBlend mode="normal" in2="BackgroundImageFix" result="effect1_dropShadow_0_1"></feBlend><feBlend mode="normal" in="SourceGraphic" in2="effect1_dropShadow_0_1" result="shape"></feBlend></filter><filter id="filter11_d_0_1" x="178.284" y="484.92" width="126.387" height="18.08" filterUnits="userSpaceOnUse" color-interpolation-filters="sRGB"><feFlood flood-opacity="0" result="BackgroundImageFix"></feFlood><feColorMatrix in="SourceAlpha" type="matrix" values="0 0 0 0 0 0 0 0 0 0 0 0 0 0 0 0 0 0 127 0" result="hardAlpha"></feColorMatrix><feOffset dy="4"></feOffset><feGaussianBlur stdDeviation="2"></feGaussianBlur><feComposite in2="hardAlpha" operator="out"></feComposite><feColorMatrix type="matrix" values="0 0 0 0 0 0 0 0 0 0 0 0 0 0 0 0 0 0 0.25 0"></feColorMatrix><feBlend mode="normal" in2="BackgroundImageFix" result="effect1_dropShadow_0_1"></feBlend><feBlend mode="normal" in="SourceGraphic" in2="effect1_dropShadow_0_1" result="shape"></feBlend></filter></defs></svg>